<?xml version="1.0" encoding="utf-8"?>
<!-- Generator: Adobe Illustrator 23.0.0, SVG Export Plug-In . SVG Version: 6.00 Build 0)  -->
<svg version="1.1" id="Layer_1" xmlns="http://www.w3.org/2000/svg" xmlns:xlink="http://www.w3.org/1999/xlink" x="0px" y="0px"
	 viewBox="0 0 67 65" style="enable-background:new 0 0 67 65;" xml:space="preserve">
<style type="text/css">
	.st0{fill:none;stroke:#FFFFFF;stroke-linecap:round;stroke-linejoin:round;stroke-miterlimit:10;}
</style>
<g>
	<path class="st0" d="M43,34.5L43,34.5c0.8,0,1.5,0.7,1.5,1.5s-0.7,1.5-1.5,1.5h-1c0.8,0,1.5,0.7,1.5,1.5s-0.7,1.5-1.5,1.5
		c0,0-4,0-6.5,0c-4,0-3-2-11-2c0-0.5,0-9,0-9h3c3.5,0,7.5-3.2,7.5-8c0-1.6,3-1.8,3,1.2c0,2-1,5.8-1,5.8h8c0.8,0,1.5,0.7,1.5,1.5
		s-0.7,1.5-1.5,1.5h-1c0.8,0,1.5,0.7,1.5,1.5s-0.7,1.5-1.5,1.5H43"/>
</g>
</svg>
