<?xml version="1.0" encoding="utf-8"?>
<svg viewBox="186.5 78.5 24 22" width="22" height="20px" xmlns="http://www.w3.org/2000/svg">
  <defs>
    <style type="text/css">
	.st0{fill:#232323;}
	.st1{fill:none;stroke:#111111;stroke-linecap:round;stroke-linejoin:round;stroke-miterlimit:10;}
	.st2{fill:none;stroke:#FFFFFF;stroke-linecap:round;stroke-linejoin:round;stroke-miterlimit:10;}
	.st3{fill:none;stroke:#FFCA3B;stroke-width:0.75;stroke-linecap:round;stroke-linejoin:round;stroke-miterlimit:10;}
	.st4{fill:none;stroke:#FFCA3B;stroke-width:0.65;stroke-linejoin:round;stroke-miterlimit:10;}
	.st5{fill:none;stroke:#FFCA3B;stroke-width:0.65;stroke-linecap:round;stroke-linejoin:round;stroke-miterlimit:10;}
	.st6{fill:#FCC029;}
	.st7{fill:none;stroke:#FFFFFF;stroke-width:0.65;stroke-linecap:round;stroke-linejoin:round;stroke-miterlimit:10;}
	.st8{fill:#FFFFFF;}
</style>
  </defs>
  <g>
    <path class="st1" d="M191,85.4L191,85.4c-0.8,0-1.5-0.7-1.5-1.5s0.7-1.5,1.5-1.5h1c-0.8,0-1.5-0.7-1.5-1.5s0.7-1.5,1.5-1.5 c0,0,4,0,6.5,0c4,0,3,2,11,2c0,0.5,0,9,0,9h-3c-3.5,0-7.5,3.2-7.5,8c0,1.6-3,1.8-3-1.2c0-2,1-5.8,1-5.8h-8c-0.8,0-1.5-0.7-1.5-1.5 s0.7-1.5,1.5-1.5h1c-0.8,0-1.5-0.7-1.5-1.5s0.7-1.5,1.5-1.5H191"/>
  </g>
</svg>