<?xml version="1.0" encoding="utf-8"?>
<svg version="1.1" id="Layer_1" x="0px" y="0px" viewBox="-2 -2 71 70" style="enable-background:new 0 0 67 65;" xmlns="http://www.w3.org/2000/svg">
  <style type="text/css">
	.st0{fill:none;stroke:#FFFFFF;stroke-linecap:round;stroke-linejoin:round;stroke-miterlimit:10;}
</style>
  <g transform="matrix(3.045455, 0, 0, 3.226498, -74.61364, -65.67318)">
    <path class="st0" d="M43,34.5L43,34.5c0.8,0,1.5,0.7,1.5,1.5s-0.7,1.5-1.5,1.5h-1c0.8,0,1.5,0.7,1.5,1.5s-0.7,1.5-1.5,1.5 c0,0-4,0-6.5,0c-4,0-3-2-11-2c0-0.5,0-9,0-9h3c3.5,0,7.5-3.2,7.5-8c0-1.6,3-1.8,3,1.2c0,2-1,5.8-1,5.8h8c0.8,0,1.5,0.7,1.5,1.5 s-0.7,1.5-1.5,1.5h-1c0.8,0,1.5,0.7,1.5,1.5s-0.7,1.5-1.5,1.5H43" style=""/>
  </g>
</svg>