<svg height="167" viewBox="0 0 167 167" width="167" xmlns="http://www.w3.org/2000/svg"><g transform="matrix(2.05679 0 0 2.059185 -201.576828 -602.929443)"><path d="m167.1 342.2h-10.1v5.1h10.1c1.4 0 2.5 1.1 2.5 2.5s-1.1 2.5-2.5 2.5h-63.4c-1.4 0-2.5 1.1-2.5 2.5s1.1 2.5 2.5 2.5h63.4c4.2 0 7.6-3.4 7.6-7.6 0-4.1-3.4-7.5-7.6-7.5z" fill="#b2c1c0"/><path d="m169 324.8-5-.4c0-.2 3.2-18.7 3.8-22.4.3-2.1 1.3-8.2 8.9-8.2v5.1c-3.1 0-3.5 1.2-3.8 3.6-.8 3.6-3.9 22.1-3.9 22.3z" fill="#b2c1c0"/><path d="m164.2 318.1c-.1.7-.8 1.3-1.5 1.3h-7.7c-.7 0-1.2-.6-1.1-1.3l.5-5.1c.1-.7.7-1.3 1.4-1.3h8c.7 0 1.2.6 1.1 1.3zm-1.8 11.4c-.1.7-.8 1.3-1.5 1.3h-7.1c-.7 0-1.2-.6-1.1-1.3l.4-3.8c.1-.7.7-1.3 1.4-1.3h7.4c.7 0 1.2.6 1.1 1.3zm-1.8 11.4c-.1.7-.8 1.3-1.5 1.3h-6.6c-.7 0-1.2-.6-1.1-1.3l.4-3.8c.1-.7.7-1.3 1.4-1.3h6.9c.7 0 1.2.6 1.1 1.3zm-11.8-22.8c-.1.7-.7 1.3-1.4 1.3h-8.4c-.7 0-1.3-.6-1.3-1.3v-5.1c0-.7.6-1.3 1.3-1.3h9.2c.7 0 1.2.6 1.1 1.3zm-1.2 11.4c-.1.7-.7 1.3-1.4 1.3h-7.2c-.7 0-1.3-.6-1.3-1.3v-3.8c0-.7.6-1.3 1.3-1.3h7.9c.7 0 1.2.6 1.1 1.3zm-1.2 11.4c-.1.7-.7 1.3-1.4 1.3h-6c-.7 0-1.3-.6-1.3-1.3v-3.8c0-.7.6-1.3 1.3-1.3h6.7c.7 0 1.2.6 1.1 1.3zm-13.8-22.8c0 .7-.6 1.3-1.3 1.3h-9.1c-.7 0-1.3-.6-1.4-1.3l-.5-5.1c-.1-.7.4-1.3 1.1-1.3h9.9c.7 0 1.3.6 1.3 1.3zm0 11.4c0 .7-.6 1.3-1.3 1.3h-7.8c-.7 0-1.3-.6-1.4-1.3l-.4-3.8c-.1-.7.4-1.3 1.1-1.3h8.5c.7 0 1.3.6 1.3 1.3zm0 11.4c0 .7-.6 1.3-1.3 1.3h-6.6c-.7 0-1.3-.6-1.4-1.3l-.4-3.8c-.1-.7.4-1.3 1.1-1.3h7.3c.7 0 1.3.6 1.3 1.3zm-15.5 1.3h-5.2c-.7 0-1.4-.6-1.6-1.2l-1-3.9c-.2-.7.3-1.2 1-1.2h6.1c.7 0 1.3.6 1.4 1.3l.4 3.8c.1.6-.4 1.2-1.1 1.2zm-8.1-11.4c-.7 0-1.4-.6-1.6-1.2l-1-3.9c-.2-.7.3-1.2 1-1.2h7.7c.7 0 1.3.6 1.4 1.3l.4 3.8c.1.7-.4 1.3-1.1 1.3h-6.8zm-4.4-12.7-1.3-5.1c-.2-.7.3-1.2 1-1.2h9.5c.7 0 1.3.6 1.4 1.3l.5 5.1c.1.7-.4 1.3-1.1 1.3h-8.5c-.6-.1-1.3-.7-1.5-1.4zm64.6-11.4h-68.5c-2.6 0-2.9 2.4-2.6 3.8l7.8 34.3c.3 1.4 1.8 2.5 3.2 2.5h53.7c1.4 0 2.7-1.1 3-2.5l5.7-35.5c.2-1.4-.9-2.6-2.3-2.6z" fill="#d70038"/><path d="m112 358.7c4.2 0 7.6 3.4 7.6 7.6s-3.4 7.6-7.6 7.6-7.6-3.4-7.6-7.6 3.4-7.6 7.6-7.6z" fill="#62727a"/><path d="m112 362.5c2.1 0 3.8 1.7 3.8 3.8s-1.7 3.8-3.8 3.8-3.8-1.7-3.8-3.8 1.7-3.8 3.8-3.8z" fill="#fff"/><path d="m157.6 358.7c4.2 0 7.6 3.4 7.6 7.6s-3.4 7.6-7.6 7.6-7.6-3.4-7.6-7.6 3.4-7.6 7.6-7.6z" fill="#62727a"/><circle cx="157.60001" cy="366.29999" fill="#fff" r="3.8"/><path d="m177.9 292.8h-3.8v7.6h3.8c.7 0 1.3-.6 1.3-1.3v-5.1c-.1-.7-.6-1.2-1.3-1.2z" fill="#62727a"/><path d="m112 356.1c-5.6 0-10.1 4.5-10.1 10.1h20.3c-.1-5.5-4.6-10.1-10.2-10.1z" fill="#444"/><path d="m157.6 356.1c-5.6 0-10.1 4.5-10.1 10.1h20.3c-.1-5.5-4.6-10.1-10.2-10.1z" fill="#444"/><path d="m152.5 342-.1.1h.1s0 0 0-.1z" fill="#75a843"/></g></svg>