<svg height="210" viewBox="0 0 210 210" width="210" xmlns="http://www.w3.org/2000/svg"><circle cx="105.0000098" cy="105.000022" r="104" stroke="#a7a7a7" stroke-miterlimit="10" stroke-width="2.08"/><g transform="matrix(2.08 0 0 2.08 -730.536011 -572.039978)"><path d="m411.3 291.5c-4.4-5.8-11.5-.5-11.3 3-2-3.2-10.6-3.4-11 3.7-.5 7.9 14.2 10.4 15.5 11.2.6-1.2 11.5-11.7 6.8-17.9z" fill="#d60038"/><g fill="#fff"><path d="m381.1 333.9v-16.7h3c2.1 0 3.4 1.6 3.4 4.2 0 2.1-.8 3.3-2 3.8 1.4.2 2.3 2.1 2.3 4.1 0 2.8-1.1 4.5-3.5 4.5h-3.2zm5-12.3c0-1.7-.5-3.1-2.2-3.1h-1.5v6.3h1.5c1.6-.1 2.2-1.5 2.2-3.2zm.2 7.7c0-1.8-.6-3.4-2.3-3.4h-1.6v6.7h1.6c1.7 0 2.3-1.2 2.3-3.3z"/><path d="m390.8 333.9v-16.7h1.3v15.4h4.4v1.2h-5.7z"/><path d="m404.7 333.9-.7-4.1h-3.7l-.7 4.1h-1.4l3.2-16.7h1.5l3.2 16.7zm-2.6-15-1.7 9.6h3.4z"/><path d="m408.1 325.5c0-4.8 1.1-8.6 4-8.6 1.9 0 2.7 1.4 3.1 2.9l-1.2.4c-.4-1.3-.9-2.1-2-2.1-1.9 0-2.6 3.2-2.6 7.4 0 4.1.7 7.4 2.6 7.4 1.2 0 1.7-1.1 2-2.6l1.2.4c-.4 1.8-1.3 3.3-3.2 3.3-2.9.2-3.9-3.7-3.9-8.5z"/><path d="m424.4 333.9-3.7-7.6-1.2 2.2v5.4h-1.3v-16.7h1.3v9.1l4.6-9.1h1.5l-4.3 7.9 4.6 8.7h-1.5z"/></g><g fill="#fff"><path d="m381.1 351.2v-14.6h5v1.1h-3.8v5.5h3.7v1h-3.7v6.9h-1.2z"/><path d="m393.7 351.2-2-6.1h-1.4v6.1h-1.2v-14.6h2.6c1.9 0 3.2 1.6 3.2 4.2s-1.2 3.7-2.1 4l2.2 6.3h-1.3zm-.1-10.3c0-1.9-.7-3.2-2.1-3.2h-1.3v6.4h1.3c1.5 0 2.1-1.4 2.1-3.2z"/><path d="m398.1 351.2v-14.6h1.2v14.6z"/><path d="m402.8 351.2v-14.6h2.4c2.8 0 4 3.1 4 7.3 0 4.3-1.1 7.3-4 7.3zm5.1-7.3c0-3.5-.7-6.2-2.7-6.2h-1.2v12.4h1.2c2 0 2.7-2.6 2.7-6.2z"/><path d="m416.6 351.2-.6-3.6h-3.3l-.6 3.6h-1.2l2.8-14.6h1.4l2.8 14.6zm-2.2-13-1.5 8.4h3z"/><path d="m421.5 351.2v-6.2l-3.2-8.3h1.3l2.5 7.1 2.5-7.1h1.2l-3.2 8.3v6.2z"/></g></g></svg>