<svg height="200" viewBox="0 0 166 200" width="166" xmlns="http://www.w3.org/2000/svg"><g transform="matrix(2.190104 0 0 2.111182 -484.460907 -595.142334)"><path d="m262.3 319.1 8.8-3.7 3.9-9.6 5.4 2.4-4.4 10.8c-.2.6-.7 1-1.1 1.3-.2.2-.5.3-.8.3l-9.5 4c-1.5.6-3.2-.1-3.9-1.7-.6-1.4.1-3.1 1.6-3.8z" fill="#ffe1bd"/><ellipse cx="283.29999" cy="295.79999" fill="#e2054a" rx="13.7" ry="13.9"/><path d="m293 286c-.3 1.2-.8 2.2-1.3 3.3-.5 1-1.2 2.1-1.8 3-1.3 2-2.7 3.9-4.2 5.7s-3.1 3.6-4.8 5.1c-.9.8-1.8 1.5-2.7 2.2-1 .7-2 1.2-3.1 1.5 1.2-.1 2.3-.6 3.4-1.1 1.1-.6 2.1-1.2 3-2 1.9-1.5 3.5-3.2 5.1-5.1 1.5-1.9 2.9-3.8 4.1-5.9.6-1 1.1-2.1 1.6-3.3.3-1 .7-2.2.7-3.4z" fill="#231f20"/><path d="m297 295.4c-.8 1.7-1.8 3.4-3.1 4.7s-2.8 2.3-4.5 3.1-3.5 1.3-5.2 2.1c-.9.4-1.8.8-2.5 1.5-.8.7-1.3 1.6-1.4 2.5.4-.9 1-1.6 1.7-2.1.8-.5 1.6-.8 2.5-1.1 1.8-.6 3.6-1.1 5.4-1.9s3.4-2 4.7-3.5c1.1-1.6 2-3.4 2.4-5.3z" fill="#231f20"/><path d="m272.2 304c1.1.5 2.4.7 3.6.1s1.9-1.8 2.4-2.9c.9-2.3 1.3-4.8 1.8-7.1.5-2.4 1-4.7 2.1-6.8 1-2.1 2.7-3.9 5-4.8-1.2.2-2.3.8-3.3 1.6s-1.8 1.8-2.4 2.9c-1.3 2.2-1.9 4.6-2.4 7l-.7 3.6c-.2 1.2-.5 2.4-.9 3.5s-.9 2.2-1.9 2.8c-.8.4-2.1.4-3.3.1z" fill="#231f20"/><path d="m275.3 284.4c-.6.4-1.1 1.1-1.5 1.7-.4.7-.7 1.4-.9 2.1-.5 1.5-.7 3-.8 4.6-.1 3.1.6 6.3 2.3 8.9.9 1.3 2 2.5 3.3 3.3 1.3.9 2.7 1.5 4.2 1.9 3 .8 6.1.7 9 .2-3 .1-6-.1-8.8-1s-5.3-2.6-6.9-5-2.3-5.4-2.4-8.3c0-1.5.1-3 .4-4.4.6-1.4 1.1-2.9 2.1-4z" fill="#231f20"/><path d="m230.7 371.2 1.4-6.6c-1.4-1.3-1.8-1.3-1.9-1.3-1-.5-2.2-.1-2.7 1l-5.9 12c2.2 1.1 6.7-.5 9.1-5.1z" fill="#3e4347"/><path d="m251.8 365.2 2.3-6.2c-1.5-1.1-4-2.3-4-2.3-1-.4-2.2.2-2.6 1.2l-4.7 12.6c2.4.9 6.8-.7 9-5.3z" fill="#3e4347"/><path d="m255.9 317.4-5.8-12.6-2.8.7 3.5 15.9z" fill="#ffe1bd"/><path d="m247.9 342.3h20.8s-.5-12.6-5.4-21.5c-3.8-7-13.7-4.8-13.7-4.8z" fill="#efc02b"/><g fill="#ffe1bd"><path d="m222.8 321.9c3.4-2.7 4.1-3.3 5.5-1.9l9-5.9c.5-.3 1.1-.5 1.7-.5.3 0 .6.1.8.2l10.1 2.2c1.6.3 2.6 1.9 2.2 3.6-.3 1.6-1.9 2.7-3.5 2.4l-9.3-2-7.5 4.9c.2.7 0 1.5-.7 2l-1.1.9c-.6.5-1.4.5-2 .2-1.5 1.1-3.9 2.1-6-.7-.2-.5-2.1-3 .8-5.4z"/><path d="m250.5 315.7c4.7.2 6.5 8.5 8.5 9.1 3.4.9 4-3.4 1.3-6.8-3.4-4.3-9.8-2.3-9.8-2.3z"/><path d="m232 364.6-1.4 6.6s8.6-3.2 13.5-3.6c1.5-.1 1.8-1.9 2.5-2.3 4.3-2.4 6.2-9.5 6.2-9.5l-8.8-1.9s-.3 2.7-1.6 6.5c-.2.5-.4 1-1.9 1-2.9 0-6 3.7-8.5 3.2z"/><path d="m251.8 365.2 2.3-6.2c2.2.6 3.1-.5 5.3.6 1 .5 1.4-.1 1.2-.5-.7-2.1-.6-3.2-.6-3.2l9.4-1.3s.5 6.9-3.4 12.5c-.9 1.3-4.5 1.5-5.4 1.1-4.7-2.5-8.8-3-8.8-3z"/></g><path d="m268.8 342.3h-20.8l-5.6 11.2 10.9 2.4c.6-1.2 1.1-2.3 1.6-3.3.3-.7.9-1.3 1.8-1.3 1 0 1.6.9 1.9 1.8.3 1 .6 2 .9 3l10.5-1.5z" fill="#3e4347"/><path d="m258.8 313.4c-.8 2.7 1.4 5.6 1.4 5.6-5.7 1.2-7.7-4.3-9.3-12.2 0-.1 9.4 1.8 7.9 6.6z" fill="#e6b796"/><path d="m246.6 287.5 18 3.5c2.7 3.7 1.6 6 1.9 7.7.1.8 1.9 1.9 2.8 2.5 2.1 1.4-.8 3.1-2 3.1-.5 1.8 1.8 2.5-3.4 2.2 0 0 5.6 1.5 2 3 .7 2 1.6 5.9-9.7 3.4-3.4-.7-5.3-6.2-5.3-6.2l-5.5-.2z" fill="#ffe1bd"/><path d="m258.6 284.3c-11.8-2.1-17.1 4.6-17.8 7.4-1.9 7.3 1.7 14.7 7.8 19.7 0 0 2.3-1.4 2.3-4.6 0 0-2.6 1.7-4.7-4.1-1.8-4.9 3.2-8.2 6.8-1.8l.7-.1c1-3.6-2.3-7.6 1.5-9.5 3.3-1.7 10 .5 10 .5.8-2.4-1.8-6.7-6.6-7.5z" fill="#594640"/><path d="m262.3 299.3c.2 1.1.9 1.9 1.7 1.8s.8-1 .7-2.1c-.2-1.1-.5-1.9-1.3-1.8s-1.3 1-1.1 2.1z" fill="#664e27"/><path d="m251.7 302.2c-.3-2.1-2.3-3.7-4.1-3.4 0 0 3.4 2 3.1 5.5 0 .1 1.2-.6 1-2.1z" fill="#e6b796"/><path d="m262.2 306.3s2.3 1.3 3.1 1.5c1.6.5 1.8 0 .9-.5-.8-.5-2.2-.8-2.2-.8z" fill="#664e27"/></g></svg>