<?xml version="1.0" encoding="utf-8"?>
<svg viewBox="92.4 14.7 25 25" width="25" height="25" xmlns="http://www.w3.org/2000/svg">
  <defs>
    <style type="text/css">
	.st0{fill:#232323;}
	.st1{fill:none;stroke:#111111;stroke-linecap:round;stroke-linejoin:round;stroke-miterlimit:10;}
	.st2{fill:none;stroke:#FFFFFF;stroke-linecap:round;stroke-linejoin:round;stroke-miterlimit:10;}
	.st3{fill:none;stroke:#FFCA3B;stroke-width:0.75;stroke-linecap:round;stroke-linejoin:round;stroke-miterlimit:10;}
	.st4{fill:none;stroke:#FFCA3B;stroke-width:0.65;stroke-linejoin:round;stroke-miterlimit:10;}
	.st5{fill:none;stroke:#FFCA3B;stroke-width:0.65;stroke-linecap:round;stroke-linejoin:round;stroke-miterlimit:10;}
	.st6{fill:#FCC029;}
	.st7{fill:none;stroke:#FFFFFF;stroke-width:0.65;stroke-linecap:round;stroke-linejoin:round;stroke-miterlimit:10;}
	.st8{fill:#FFFFFF;}
</style>
  </defs>
  <g>
    <circle class="st5" cx="104.9" cy="27.2" r="12.5"/>
    <g>
      <path class="st6" d="M96.7,23.5h1.8c0.7,0,1,0.4,1,0.9c0,0.4-0.3,0.7-0.6,0.8c0.4,0.1,0.7,0.4,0.7,0.8c0,0.5-0.3,0.9-1,0.9h-1.9 V23.5z M98.4,24.9c0.2,0,0.4-0.2,0.4-0.4s-0.2-0.4-0.4-0.4h-0.9v0.7h0.9V24.9z M98.4,26.3c0.3,0,0.4-0.1,0.4-0.4 c0-0.2-0.2-0.4-0.4-0.4h-0.9v0.8C97.5,26.3,98.4,26.3,98.4,26.3z"/>
      <path class="st6" d="M100.2,23.5h0.7v2.8h1.4v0.6h-2.2L100.2,23.5L100.2,23.5z"/>
      <path class="st6" d="M105.2,26.3h-1.5l-0.2,0.6h-0.8l1.3-3.4h0.9l1.3,3.4h-0.8L105.2,26.3z M103.9,25.7h1.1l-0.5-1.5L103.9,25.7z"/>
      <path class="st6" d="M106.4,25.2c0-1.1,0.8-1.8,1.8-1.8c0.8,0,1.2,0.4,1.4,0.8l-0.6,0.3c-0.1-0.3-0.5-0.5-0.8-0.5 c-0.6,0-1.1,0.5-1.1,1.1s0.5,1.1,1.1,1.1c0.4,0,0.7-0.2,0.8-0.5l0.6,0.3c-0.2,0.4-0.7,0.8-1.4,0.8C107.2,27,106.4,26.3,106.4,25.2 z"/>
      <path class="st6" d="M111.2,25.6l-0.3,0.3V27h-0.7v-3.4h0.7V25l1.2-1.5h0.9l-1.4,1.6l1.5,1.8h-0.9L111.2,25.6z"/>
      <path class="st6" d="M96.7,27.7h2.2v0.6h-1.6V29h1.5v0.6h-1.5v1.3h-0.7L96.7,27.7L96.7,27.7z"/>
      <path class="st6" d="M100.7,29.8h-0.5v1.1h-0.7v-3.1h1.5c0.7,0,1.1,0.4,1.1,1s-0.3,0.9-0.7,0.9l0.7,1.2h-0.8L100.7,29.8z M100.9,28.3h-0.7v0.8h0.7c0.3,0,0.5-0.2,0.5-0.4S101.1,28.3,100.9,28.3z"/>
      <path class="st6" d="M102.6,27.7h0.7v3.1h-0.7V27.7z"/>
      <path class="st6" d="M104,27.7h1.2c1,0,1.7,0.6,1.7,1.6s-0.7,1.6-1.7,1.6H104V27.7z M105.3,30.3c0.6,0,1-0.4,1-1s-0.3-1-1-1h-0.6 v2H105.3z"/>
      <path class="st6" d="M109.3,30.3H108l-0.2,0.5H107l1.2-3.1h0.8l1.2,3.1h-0.8L109.3,30.3z M108.2,29.7h1l-0.5-1.4L108.2,29.7z"/>
      <path class="st6" d="M111.3,29.6l-1.2-1.9h0.8l0.8,1.3l0.8-1.3h0.8l-1.2,1.9v1.3h-0.7v-1.3H111.3z"/>
    </g>
  </g>
</svg>