<?xml version="1.0" encoding="utf-8"?>
<svg viewBox="54.5 15.5 21 23" width="21" height="23" xmlns="http://www.w3.org/2000/svg">
  <defs>
    <style type="text/css">
	.st0{fill:#232323;}
	.st1{fill:none;stroke:#111111;stroke-linecap:round;stroke-linejoin:round;stroke-miterlimit:10;}
	.st2{fill:none;stroke:#FFFFFF;stroke-linecap:round;stroke-linejoin:round;stroke-miterlimit:10;}
	.st3{fill:none;stroke:#FFCA3B;stroke-width:0.75;stroke-linecap:round;stroke-linejoin:round;stroke-miterlimit:10;}
	.st4{fill:none;stroke:#FFCA3B;stroke-width:0.65;stroke-linejoin:round;stroke-miterlimit:10;}
	.st5{fill:none;stroke:#FFCA3B;stroke-width:0.65;stroke-linecap:round;stroke-linejoin:round;stroke-miterlimit:10;}
	.st6{fill:#FCC029;}
	.st7{fill:none;stroke:#FFFFFF;stroke-width:0.65;stroke-linecap:round;stroke-linejoin:round;stroke-miterlimit:10;}
	.st8{fill:#FFFFFF;}
</style>
  </defs>
  <g>
    <polyline class="st4" points="67.5,24 67.5,21 59.5,18 59.5,23.5 &#9;"/>
    <polygon class="st5" points="62.5,28 54.5,25 54.5,35 62.5,38.5 &#9;"/>
    <polygon class="st5" points="62.5,28 70.5,25 70.5,35 62.5,38.5 &#9;"/>
    <polyline class="st5" points="70.5,25 62.5,22.5 54.5,25 &#9;"/>
    <polyline class="st4" points="67.5,21 75.5,18 75.5,28 70.5,30 &#9;"/>
    <polyline class="st5" points="75.5,18 67.5,15.5 59.5,18 &#9;"/>
    <path class="st4" d="M68,18c0,0.3-0.2,0.5-0.5,0.5l0,0c-0.3,0-0.5-0.2-0.5-0.5l0,0c0-0.3,0.2-0.5,0.5-0.5l0,0 C67.8,17.5,68,17.7,68,18L68,18z"/>
    <path class="st4" d="M73.5,21.5c0,0.3-0.2,0.5-0.5,0.5l0,0c-0.3,0-0.5-0.2-0.5-0.5l0,0c0-0.3,0.2-0.5,0.5-0.5l0,0 C73.3,21,73.5,21.2,73.5,21.5L73.5,21.5z"/>
    <path class="st4" d="M73.5,26.5c0,0.3-0.2,0.5-0.5,0.5l0,0c-0.3,0-0.5-0.2-0.5-0.5l0,0c0-0.3,0.2-0.5,0.5-0.5l0,0 C73.3,26,73.5,26.2,73.5,26.5L73.5,26.5z"/>
    <path class="st4" d="M63,25c0,0.3-0.2,0.5-0.5,0.5l0,0c-0.3,0-0.5-0.2-0.5-0.5l0,0c0-0.3,0.2-0.5,0.5-0.5l0,0 C62.8,24.5,63,24.7,63,25L63,25z"/>
    <path class="st4" d="M57.5,29.5c0,0.3-0.2,0.5-0.5,0.5l0,0c-0.3,0-0.5-0.2-0.5-0.5l0,0c0-0.3,0.2-0.5,0.5-0.5l0,0 C57.3,29,57.5,29.2,57.5,29.5L57.5,29.5z"/>
    <path class="st4" d="M60.5,34.5c0,0.3-0.2,0.5-0.5,0.5l0,0c-0.3,0-0.5-0.2-0.5-0.5l0,0c0-0.3,0.2-0.5,0.5-0.5l0,0 C60.3,34,60.5,34.2,60.5,34.5L60.5,34.5z"/>
    <path class="st4" d="M65.5,34.5c0,0.3-0.2,0.5-0.5,0.5l0,0c-0.3,0-0.5-0.2-0.5-0.5l0,0c0-0.3,0.2-0.5,0.5-0.5l0,0 C65.3,34,65.5,34.2,65.5,34.5L65.5,34.5z"/>
    <path class="st4" d="M67,32c0,0.3-0.2,0.5-0.5,0.5l0,0c-0.3,0-0.5-0.2-0.5-0.5l0,0c0-0.3,0.2-0.5,0.5-0.5l0,0 C66.8,31.5,67,31.7,67,32L67,32z"/>
    <path class="st4" d="M68.5,29.5c0,0.3-0.2,0.5-0.5,0.5l0,0c-0.3,0-0.5-0.2-0.5-0.5l0,0c0-0.3,0.2-0.5,0.5-0.5l0,0 C68.3,29,68.5,29.2,68.5,29.5L68.5,29.5z"/>
  </g>
</svg>